<mxfile host="Electron" agent="Mozilla/5.0 (Macintosh; Intel Mac OS X 10_15_7) AppleWebKit/537.36 (KHTML, like Gecko) draw.io/26.0.4 Chrome/128.0.6613.186 Electron/32.2.5 Safari/537.36" version="26.0.4">
  <diagram name="페이지-1" id="MFb8aZQvWeoVzMCZgMdP">
    <mxGraphModel dx="1434" dy="854" grid="1" gridSize="10" guides="1" tooltips="1" connect="1" arrows="1" fold="1" page="1" pageScale="1" pageWidth="827" pageHeight="1169" math="0" shadow="0">
      <root>
        <mxCell id="0" />
        <mxCell id="1" parent="0" />
        <mxCell id="mmqsa7wmzlAlrVzIwqrk-3" value="" style="edgeStyle=orthogonalEdgeStyle;rounded=0;orthogonalLoop=1;jettySize=auto;html=1;" parent="1" source="mmqsa7wmzlAlrVzIwqrk-1" target="mmqsa7wmzlAlrVzIwqrk-2" edge="1">
          <mxGeometry relative="1" as="geometry" />
        </mxCell>
        <mxCell id="mmqsa7wmzlAlrVzIwqrk-8" style="edgeStyle=orthogonalEdgeStyle;rounded=0;orthogonalLoop=1;jettySize=auto;html=1;exitX=0.5;exitY=1;exitDx=0;exitDy=0;entryX=0;entryY=0.5;entryDx=0;entryDy=0;" parent="1" source="mmqsa7wmzlAlrVzIwqrk-1" target="mmqsa7wmzlAlrVzIwqrk-6" edge="1">
          <mxGeometry relative="1" as="geometry" />
        </mxCell>
        <mxCell id="mmqsa7wmzlAlrVzIwqrk-1" value="&lt;font style=&quot;font-size: 20px;&quot;&gt;컨트롤러&lt;/font&gt;" style="rounded=0;whiteSpace=wrap;html=1;" parent="1" vertex="1">
          <mxGeometry x="80" y="240" width="120" height="60" as="geometry" />
        </mxCell>
        <mxCell id="mmqsa7wmzlAlrVzIwqrk-5" value="" style="edgeStyle=orthogonalEdgeStyle;rounded=0;orthogonalLoop=1;jettySize=auto;html=1;" parent="1" source="mmqsa7wmzlAlrVzIwqrk-2" target="mmqsa7wmzlAlrVzIwqrk-4" edge="1">
          <mxGeometry relative="1" as="geometry" />
        </mxCell>
        <mxCell id="mmqsa7wmzlAlrVzIwqrk-7" value="" style="edgeStyle=orthogonalEdgeStyle;rounded=0;orthogonalLoop=1;jettySize=auto;html=1;" parent="1" source="mmqsa7wmzlAlrVzIwqrk-2" target="mmqsa7wmzlAlrVzIwqrk-6" edge="1">
          <mxGeometry relative="1" as="geometry" />
        </mxCell>
        <mxCell id="mmqsa7wmzlAlrVzIwqrk-2" value="&lt;font style=&quot;font-size: 20px;&quot;&gt;서비스&lt;/font&gt;" style="rounded=0;whiteSpace=wrap;html=1;" parent="1" vertex="1">
          <mxGeometry x="280" y="240" width="120" height="60" as="geometry" />
        </mxCell>
        <mxCell id="mmqsa7wmzlAlrVzIwqrk-10" style="edgeStyle=orthogonalEdgeStyle;rounded=0;orthogonalLoop=1;jettySize=auto;html=1;exitX=0.5;exitY=1;exitDx=0;exitDy=0;entryX=1;entryY=0.5;entryDx=0;entryDy=0;" parent="1" source="mmqsa7wmzlAlrVzIwqrk-4" target="mmqsa7wmzlAlrVzIwqrk-6" edge="1">
          <mxGeometry relative="1" as="geometry" />
        </mxCell>
        <mxCell id="mmqsa7wmzlAlrVzIwqrk-4" value="&lt;font style=&quot;font-size: 20px;&quot;&gt;리포지토리&lt;/font&gt;" style="rounded=0;whiteSpace=wrap;html=1;" parent="1" vertex="1">
          <mxGeometry x="480" y="240" width="120" height="60" as="geometry" />
        </mxCell>
        <mxCell id="mmqsa7wmzlAlrVzIwqrk-6" value="&lt;font style=&quot;font-size: 20px;&quot;&gt;도메인&lt;/font&gt;" style="rounded=0;whiteSpace=wrap;html=1;" parent="1" vertex="1">
          <mxGeometry x="280" y="380" width="120" height="60" as="geometry" />
        </mxCell>
        <mxCell id="mmqsa7wmzlAlrVzIwqrk-11" value="DB" style="strokeWidth=2;html=1;shape=mxgraph.flowchart.database;whiteSpace=wrap;" parent="1" vertex="1">
          <mxGeometry x="690" y="220" width="60" height="100" as="geometry" />
        </mxCell>
        <mxCell id="mmqsa7wmzlAlrVzIwqrk-12" style="edgeStyle=orthogonalEdgeStyle;rounded=0;orthogonalLoop=1;jettySize=auto;html=1;exitX=1;exitY=0.5;exitDx=0;exitDy=0;entryX=0;entryY=0.5;entryDx=0;entryDy=0;entryPerimeter=0;" parent="1" source="mmqsa7wmzlAlrVzIwqrk-4" target="mmqsa7wmzlAlrVzIwqrk-11" edge="1">
          <mxGeometry relative="1" as="geometry" />
        </mxCell>
        <mxCell id="HjPG7o08bH9SylwkRu-I-3" value="" style="edgeStyle=orthogonalEdgeStyle;rounded=0;orthogonalLoop=1;jettySize=auto;html=1;" parent="1" source="HjPG7o08bH9SylwkRu-I-1" target="HjPG7o08bH9SylwkRu-I-2" edge="1">
          <mxGeometry relative="1" as="geometry" />
        </mxCell>
        <mxCell id="HjPG7o08bH9SylwkRu-I-1" value="MemberService" style="rounded=0;whiteSpace=wrap;html=1;" parent="1" vertex="1">
          <mxGeometry x="80" y="600" width="120" height="60" as="geometry" />
        </mxCell>
        <mxCell id="HjPG7o08bH9SylwkRu-I-2" value="MemberRepository" style="whiteSpace=wrap;html=1;rounded=0;" parent="1" vertex="1">
          <mxGeometry x="280" y="600" width="120" height="60" as="geometry" />
        </mxCell>
        <mxCell id="HjPG7o08bH9SylwkRu-I-5" style="edgeStyle=orthogonalEdgeStyle;rounded=0;orthogonalLoop=1;jettySize=auto;html=1;entryX=0.5;entryY=1;entryDx=0;entryDy=0;dashed=1;" parent="1" source="HjPG7o08bH9SylwkRu-I-4" target="HjPG7o08bH9SylwkRu-I-2" edge="1">
          <mxGeometry relative="1" as="geometry" />
        </mxCell>
        <mxCell id="HjPG7o08bH9SylwkRu-I-4" value="Memory&lt;div&gt;MemberRepository&lt;/div&gt;" style="rounded=0;whiteSpace=wrap;html=1;" parent="1" vertex="1">
          <mxGeometry x="280" y="740" width="120" height="60" as="geometry" />
        </mxCell>
        <mxCell id="HjPG7o08bH9SylwkRu-I-6" value="Interface" style="text;html=1;align=center;verticalAlign=middle;whiteSpace=wrap;rounded=0;" parent="1" vertex="1">
          <mxGeometry x="310" y="570" width="60" height="30" as="geometry" />
        </mxCell>
        <mxCell id="ATWH_mVFPBU5D2RGYxRN-1" value="&lt;b&gt;MemberController&lt;/b&gt;" style="ellipse;whiteSpace=wrap;html=1;fillColor=#d5e8d4;strokeColor=#82b366;" vertex="1" parent="1">
          <mxGeometry x="80" y="920" width="120" height="80" as="geometry" />
        </mxCell>
        <mxCell id="ATWH_mVFPBU5D2RGYxRN-8" style="edgeStyle=orthogonalEdgeStyle;rounded=0;orthogonalLoop=1;jettySize=auto;html=1;exitX=0;exitY=0.5;exitDx=0;exitDy=0;strokeWidth=3;" edge="1" parent="1" source="ATWH_mVFPBU5D2RGYxRN-3" target="ATWH_mVFPBU5D2RGYxRN-1">
          <mxGeometry relative="1" as="geometry" />
        </mxCell>
        <mxCell id="ATWH_mVFPBU5D2RGYxRN-3" value="&lt;b&gt;MemberService&lt;/b&gt;" style="ellipse;whiteSpace=wrap;html=1;fillColor=#d5e8d4;strokeColor=#82b366;" vertex="1" parent="1">
          <mxGeometry x="280" y="920" width="120" height="80" as="geometry" />
        </mxCell>
        <mxCell id="ATWH_mVFPBU5D2RGYxRN-7" style="edgeStyle=orthogonalEdgeStyle;rounded=0;orthogonalLoop=1;jettySize=auto;html=1;exitX=0;exitY=0.5;exitDx=0;exitDy=0;entryX=1;entryY=0.5;entryDx=0;entryDy=0;strokeWidth=3;" edge="1" parent="1" source="ATWH_mVFPBU5D2RGYxRN-5" target="ATWH_mVFPBU5D2RGYxRN-3">
          <mxGeometry relative="1" as="geometry" />
        </mxCell>
        <mxCell id="ATWH_mVFPBU5D2RGYxRN-5" value="&lt;b&gt;MemberRepository&lt;/b&gt;" style="ellipse;whiteSpace=wrap;html=1;fillColor=#d5e8d4;strokeColor=#82b366;" vertex="1" parent="1">
          <mxGeometry x="480" y="920" width="120" height="80" as="geometry" />
        </mxCell>
      </root>
    </mxGraphModel>
  </diagram>
</mxfile>
